<?xml version="1.0" encoding="UTF-8"?>
<svg xmlns="http://www.w3.org/2000/svg" width="280" height="280" viewBox="0 0 280 280" role="img" aria-label="gọn (compact)">
<rect x="0" y="0" width="280" height="280" fill="#f7f6f2"/>
<rect x="28" y="28" width="224" height="224" fill="#efece5" stroke="#bbb3a5" stroke-width="1.2"/>
<circle cx="193.8" cy="140.0" r="6.7" fill="#cfe0f0" stroke="#1f4e79" stroke-width="1.4"/>
<text x="193.8" y="128.3" text-anchor="middle" font-size="10" fill="#1f4e79" font-family="Segoe UI,Noto Sans,sans-serif">đích</text>
<circle cx="140.0" cy="140.0" r="4" fill="none" stroke="#8a8478" stroke-dasharray="2 2"/>
<circle cx="136.8" cy="139.0" r="2.2" fill="#3d6b3a" opacity="0.92"/>
<circle cx="132.4" cy="134.4" r="2.2" fill="#3d6b3a" opacity="0.92"/>
<circle cx="142.6" cy="141.2" r="2.2" fill="#3d6b3a" opacity="0.92"/>
<circle cx="138.7" cy="138.8" r="2.2" fill="#3d6b3a" opacity="0.92"/>
<circle cx="138.9" cy="140.9" r="2.2" fill="#3d6b3a" opacity="0.92"/>
<circle cx="142.9" cy="137.9" r="2.2" fill="#3d6b3a" opacity="0.92"/>
<circle cx="139.7" cy="140.3" r="2.2" fill="#3d6b3a" opacity="0.92"/>
<circle cx="140.6" cy="142.5" r="2.2" fill="#3d6b3a" opacity="0.92"/>
<circle cx="138.4" cy="137.8" r="2.2" fill="#3d6b3a" opacity="0.92"/>
<circle cx="139.5" cy="145.5" r="2.2" fill="#3d6b3a" opacity="0.92"/>
<circle cx="138.1" cy="137.4" r="2.2" fill="#3d6b3a" opacity="0.92"/>
<circle cx="139.1" cy="140.6" r="2.2" fill="#3d6b3a" opacity="0.92"/>
<circle cx="142.6" cy="132.6" r="2.2" fill="#3d6b3a" opacity="0.92"/>
<circle cx="137.1" cy="134.6" r="2.2" fill="#3d6b3a" opacity="0.92"/>
<circle cx="135.0" cy="139.3" r="2.2" fill="#3d6b3a" opacity="0.92"/>
<circle cx="135.3" cy="134.6" r="2.2" fill="#3d6b3a" opacity="0.92"/>
<circle cx="143.4" cy="135.4" r="2.2" fill="#3d6b3a" opacity="0.92"/>
<circle cx="136.4" cy="137.2" r="2.2" fill="#3d6b3a" opacity="0.92"/>
<circle cx="137.9" cy="141.8" r="2.2" fill="#3d6b3a" opacity="0.92"/>
<circle cx="142.0" cy="136.5" r="2.2" fill="#3d6b3a" opacity="0.92"/>
<circle cx="140.8" cy="142.5" r="2.2" fill="#3d6b3a" opacity="0.92"/>
<circle cx="136.7" cy="134.2" r="2.2" fill="#3d6b3a" opacity="0.92"/>
<circle cx="142.4" cy="137.1" r="2.2" fill="#3d6b3a" opacity="0.92"/>
<circle cx="148.8" cy="143.3" r="2.2" fill="#3d6b3a" opacity="0.92"/>
<circle cx="150.3" cy="127.3" r="2.2" fill="#3d6b3a" opacity="0.92"/>
<circle cx="146.5" cy="136.7" r="2.2" fill="#3d6b3a" opacity="0.92"/>
<circle cx="137.3" cy="136.0" r="2.2" fill="#3d6b3a" opacity="0.92"/>
<circle cx="138.2" cy="140.1" r="2.2" fill="#3d6b3a" opacity="0.92"/>
<circle cx="138.8" cy="138.9" r="2.2" fill="#3d6b3a" opacity="0.92"/>
<circle cx="145.2" cy="142.2" r="2.2" fill="#3d6b3a" opacity="0.92"/>
<circle cx="136.0" cy="144.0" r="2.2" fill="#3d6b3a" opacity="0.92"/>
<circle cx="136.1" cy="145.8" r="2.2" fill="#3d6b3a" opacity="0.92"/>
<circle cx="136.3" cy="134.8" r="2.2" fill="#3d6b3a" opacity="0.92"/>
<circle cx="137.6" cy="139.0" r="2.2" fill="#3d6b3a" opacity="0.92"/>
<circle cx="135.1" cy="139.3" r="2.2" fill="#3d6b3a" opacity="0.92"/>
<circle cx="133.0" cy="142.8" r="2.2" fill="#3d6b3a" opacity="0.92"/>
<circle cx="149.1" cy="142.4" r="2.2" fill="#3d6b3a" opacity="0.92"/>
<circle cx="144.5" cy="138.2" r="2.2" fill="#3d6b3a" opacity="0.92"/>
<circle cx="139.4" cy="142.6" r="2.2" fill="#3d6b3a" opacity="0.92"/>
<circle cx="145.2" cy="140.7" r="2.2" fill="#3d6b3a" opacity="0.92"/>
<circle cx="146.2" cy="142.9" r="2.2" fill="#3d6b3a" opacity="0.92"/>
<circle cx="140.2" cy="138.1" r="2.2" fill="#3d6b3a" opacity="0.92"/>
<circle cx="141.5" cy="145.0" r="2.2" fill="#3d6b3a" opacity="0.92"/>
<circle cx="137.3" cy="140.8" r="2.2" fill="#3d6b3a" opacity="0.92"/>
<circle cx="136.6" cy="137.3" r="2.2" fill="#3d6b3a" opacity="0.92"/>
<circle cx="142.4" cy="147.9" r="2.2" fill="#3d6b3a" opacity="0.92"/>
<circle cx="132.7" cy="145.2" r="2.2" fill="#3d6b3a" opacity="0.92"/>
<circle cx="140.5" cy="131.8" r="2.2" fill="#3d6b3a" opacity="0.92"/>
<circle cx="138.5" cy="139.0" r="2.2" fill="#3d6b3a" opacity="0.92"/>
<circle cx="135.7" cy="144.2" r="2.2" fill="#3d6b3a" opacity="0.92"/>
<rect x="126.9" y="128.7" width="6.4" height="6.4" rx="1.2" fill="#1f4e79"/>
<rect x="130.5" y="144.9" width="6.4" height="6.4" rx="1.2" fill="#1f4e79"/>
<rect x="122.5" y="137.7" width="6.4" height="6.4" rx="1.2" fill="#1f4e79"/>
<text x="28" y="16" font-size="12" font-weight="600" fill="#1c1b19" font-family="Segoe UI,Noto Sans,sans-serif">gọn (compact)</text>
<text x="28" y="270" font-size="10" fill="#5c5852" font-family="Segoe UI,Noto Sans,sans-serif">sigma = 0.3 × 30 = 9  |  mốc</text>
</svg>
