<?xml version="1.0" encoding="UTF-8"?>
<svg xmlns="http://www.w3.org/2000/svg" width="280" height="280" viewBox="0 0 280 280" role="img" aria-label="split">
<rect x="0" y="0" width="280" height="280" fill="#f7f6f2"/>
<rect x="28" y="28" width="224" height="224" fill="#efece5" stroke="#bbb3a5" stroke-width="1.2"/>
<circle cx="193.8" cy="140.0" r="6.7" fill="#cfe0f0" stroke="#1f4e79" stroke-width="1.4"/>
<text x="193.8" y="128.3" text-anchor="middle" font-size="10" fill="#1f4e79" font-family="Segoe UI,Noto Sans,sans-serif">goal</text>
<circle cx="140.0" cy="140.0" r="4" fill="none" stroke="#8a8478" stroke-dasharray="2 2"/>
<circle cx="145.6" cy="139.3" r="2.2" fill="#3d6b3a" opacity="0.92"/>
<circle cx="145.4" cy="139.7" r="2.2" fill="#3d6b3a" opacity="0.92"/>
<circle cx="145.8" cy="138.5" r="2.2" fill="#3d6b3a" opacity="0.92"/>
<circle cx="144.5" cy="138.7" r="2.2" fill="#3d6b3a" opacity="0.92"/>
<circle cx="146.4" cy="139.8" r="2.2" fill="#3d6b3a" opacity="0.92"/>
<circle cx="144.6" cy="139.4" r="2.2" fill="#3d6b3a" opacity="0.92"/>
<circle cx="146.8" cy="141.7" r="2.2" fill="#3d6b3a" opacity="0.92"/>
<circle cx="145.5" cy="139.9" r="2.2" fill="#3d6b3a" opacity="0.92"/>
<circle cx="144.3" cy="141.0" r="2.2" fill="#3d6b3a" opacity="0.92"/>
<circle cx="142.9" cy="141.8" r="2.2" fill="#3d6b3a" opacity="0.92"/>
<circle cx="142.9" cy="141.0" r="2.2" fill="#3d6b3a" opacity="0.92"/>
<circle cx="144.5" cy="140.9" r="2.2" fill="#3d6b3a" opacity="0.92"/>
<circle cx="146.0" cy="140.3" r="2.2" fill="#3d6b3a" opacity="0.92"/>
<circle cx="144.2" cy="141.2" r="2.2" fill="#3d6b3a" opacity="0.92"/>
<circle cx="143.6" cy="140.3" r="2.2" fill="#3d6b3a" opacity="0.92"/>
<circle cx="145.0" cy="137.4" r="2.2" fill="#3d6b3a" opacity="0.92"/>
<circle cx="147.9" cy="137.6" r="2.2" fill="#3d6b3a" opacity="0.92"/>
<circle cx="140.7" cy="137.3" r="2.2" fill="#3d6b3a" opacity="0.92"/>
<circle cx="138.4" cy="134.1" r="2.2" fill="#3d6b3a" opacity="0.92"/>
<circle cx="138.1" cy="131.9" r="2.2" fill="#3d6b3a" opacity="0.92"/>
<circle cx="141.4" cy="133.8" r="2.2" fill="#3d6b3a" opacity="0.92"/>
<circle cx="138.4" cy="137.2" r="2.2" fill="#3d6b3a" opacity="0.92"/>
<circle cx="135.5" cy="134.2" r="2.2" fill="#3d6b3a" opacity="0.92"/>
<circle cx="137.2" cy="137.5" r="2.2" fill="#3d6b3a" opacity="0.92"/>
<circle cx="137.1" cy="134.8" r="2.2" fill="#3d6b3a" opacity="0.92"/>
<circle cx="138.8" cy="135.5" r="2.2" fill="#3d6b3a" opacity="0.92"/>
<circle cx="136.9" cy="135.3" r="2.2" fill="#3d6b3a" opacity="0.92"/>
<circle cx="137.6" cy="137.2" r="2.2" fill="#3d6b3a" opacity="0.92"/>
<circle cx="138.7" cy="131.8" r="2.2" fill="#3d6b3a" opacity="0.92"/>
<circle cx="138.6" cy="137.7" r="2.2" fill="#3d6b3a" opacity="0.92"/>
<circle cx="137.5" cy="138.2" r="2.2" fill="#3d6b3a" opacity="0.92"/>
<circle cx="134.4" cy="134.3" r="2.2" fill="#3d6b3a" opacity="0.92"/>
<circle cx="137.4" cy="136.5" r="2.2" fill="#3d6b3a" opacity="0.92"/>
<circle cx="133.9" cy="137.4" r="2.2" fill="#3d6b3a" opacity="0.92"/>
<circle cx="137.6" cy="144.6" r="2.2" fill="#3d6b3a" opacity="0.92"/>
<circle cx="138.4" cy="142.2" r="2.2" fill="#3d6b3a" opacity="0.92"/>
<circle cx="136.8" cy="143.9" r="2.2" fill="#3d6b3a" opacity="0.92"/>
<circle cx="137.1" cy="145.5" r="2.2" fill="#3d6b3a" opacity="0.92"/>
<circle cx="136.9" cy="143.1" r="2.2" fill="#3d6b3a" opacity="0.92"/>
<circle cx="135.7" cy="142.8" r="2.2" fill="#3d6b3a" opacity="0.92"/>
<circle cx="139.7" cy="144.6" r="2.2" fill="#3d6b3a" opacity="0.92"/>
<circle cx="137.7" cy="146.9" r="2.2" fill="#3d6b3a" opacity="0.92"/>
<circle cx="141.1" cy="143.1" r="2.2" fill="#3d6b3a" opacity="0.92"/>
<circle cx="137.6" cy="144.6" r="2.2" fill="#3d6b3a" opacity="0.92"/>
<circle cx="138.0" cy="145.7" r="2.2" fill="#3d6b3a" opacity="0.92"/>
<circle cx="137.8" cy="146.1" r="2.2" fill="#3d6b3a" opacity="0.92"/>
<circle cx="138.1" cy="145.7" r="2.2" fill="#3d6b3a" opacity="0.92"/>
<circle cx="138.8" cy="144.8" r="2.2" fill="#3d6b3a" opacity="0.92"/>
<circle cx="137.7" cy="139.9" r="2.2" fill="#3d6b3a" opacity="0.92"/>
<circle cx="138.6" cy="144.2" r="2.2" fill="#3d6b3a" opacity="0.92"/>
<rect x="126.9" y="128.7" width="6.4" height="6.4" rx="1.2" fill="#1f4e79"/>
<rect x="130.5" y="144.9" width="6.4" height="6.4" rx="1.2" fill="#1f4e79"/>
<rect x="122.5" y="137.7" width="6.4" height="6.4" rx="1.2" fill="#1f4e79"/>
<text x="28" y="16" font-size="12" font-weight="600" fill="#1c1b19" font-family="Segoe UI,Noto Sans,sans-serif">split</text>
<text x="28" y="270" font-size="10" fill="#5c5852" font-family="Segoe UI,Noto Sans,sans-serif">3 clusters (N>=12)  |  gap >= 10</text>
</svg>
